<svg id="Calque_1" xmlns="http://www.w3.org/2000/svg" viewBox="0 0 1366 768"><style>.st0{fill:#00dea1}</style><path class="st0" d="M279 325.5c-22.5 0-42.8 9.7-57 25.1-14.2-15.4-34.5-25.1-57-25.1-41.9 0-76.2 33.5-77.4 75.1 0 .4-.1.8-.1 1.2v85.4c0 11.3 9.2 20.5 20.5 20.5s20.5-9.2 20.5-20.5V403c0-20.1 16.4-36.5 36.5-36.5s36.5 16.4 36.5 36.5v84.2c0 11.3 9.2 20.5 20.5 20.5s20.5-9.2 20.5-20.5V403c0-20.1 16.4-36.5 36.5-36.5s36.5 16.4 36.5 36.5v84.2c0 11.3 9.2 20.5 20.5 20.5s20.5-9.2 20.5-20.5v-85.4c0-.4 0-.8-.1-1.2-1.2-41.6-35.5-75.1-77.4-75.1zM537 326.5c-41.9 0-76 33.4-77.4 74.9 0 .4-.1.9-.1 1.3V488c0 11.3 9.2 20.5 20.5 20.5s20.5-9.2 20.5-20.5v-84c0-20.1 16.4-36.5 36.5-36.5s36.5 16.4 36.5 36.5v84c0 11.3 9.2 20.5 20.5 20.5s20.5-9.2 20.5-20.5v-85.3c0-.4 0-.9-.1-1.3-1.4-41.5-35.5-74.9-77.4-74.9zM408 380.5c-11.3 0-20.5 9.2-20.5 20.5v85.3c0 11.3 9.2 20.5 20.5 20.5s20.5-9.2 20.5-20.5V401c0-11.3-9.2-20.5-20.5-20.5zM428.6 341.9c-.1-.7-.3-1.3-.5-2-.2-.6-.4-1.3-.7-1.9-.3-.6-.6-1.3-.9-1.9-.3-.6-.7-1.2-1-1.8-.4-.6-.8-1.1-1.2-1.7-.4-.5-.9-1-1.4-1.5-.5-.5-1-1-1.5-1.4-.5-.4-1.1-.8-1.7-1.2-.6-.4-1.2-.7-1.8-1.1-.6-.3-1.2-.6-1.9-.9-.6-.3-1.3-.5-1.9-.7-.7-.2-1.3-.4-2-.5-.7-.1-1.3-.2-2-.3-1.4-.1-2.8-.1-4.1 0-.7.1-1.4.2-2 .3-.7.1-1.3.3-2 .5-.6.2-1.3.4-1.9.7-.6.3-1.3.6-1.9.9-.6.3-1.2.7-1.8 1.1-.6.4-1.1.8-1.6 1.2-.5.4-1.1.9-1.5 1.4-.5.5-1 1-1.4 1.5-.4.5-.8 1.1-1.2 1.7-.4.6-.7 1.2-1.1 1.8-.3.6-.6 1.2-.9 1.9-.3.6-.5 1.3-.7 1.9-.2.7-.4 1.3-.5 2-.1.7-.2 1.4-.3 2-.1.7-.1 1.4-.1 2.1s0 1.4.1 2.1c.1.7.2 1.4.3 2 .1.7.3 1.3.5 2s.4 1.3.7 1.9c.3.6.6 1.3.9 1.9.3.6.7 1.2 1.1 1.8.4.6.8 1.1 1.2 1.7.4.5.9 1 1.4 1.5.5.5 1 1 1.5 1.4.5.4 1.1.8 1.6 1.2.6.4 1.2.7 1.8 1s1.2.6 1.9.9c.6.3 1.3.5 1.9.7.7.2 1.3.4 2 .5.7.1 1.4.2 2 .3.7.1 1.4.1 2.1.1s1.4 0 2.1-.1c.7-.1 1.4-.2 2-.3.7-.1 1.3-.3 2-.5s1.3-.4 1.9-.7c.6-.3 1.3-.6 1.9-.9.6-.3 1.2-.7 1.8-1 .6-.4 1.1-.8 1.7-1.2.5-.4 1-.9 1.5-1.4.5-.5 1-1 1.4-1.5.4-.5.8-1.1 1.2-1.7.4-.6.7-1.2 1-1.8.3-.6.6-1.2.9-1.9.3-.6.5-1.3.7-1.9.2-.7.4-1.3.5-2 .1-.7.2-1.3.3-2 .1-.7.1-1.4.1-2.1s0-1.4-.1-2.1c-.2-.6-.3-1.3-.4-2zM909 324.5c-22.5 0-42.8 9.7-57 25.1-14.2-15.4-34.5-25.1-57-25.1-42.1 0-76.4 33.7-77.4 75.5 0 .3-.1.7-.1 1v85.3c0 11.3 9.2 20.5 20.5 20.5s20.5-9.2 20.5-20.5V402c0-20.1 16.4-36.5 36.5-36.5s36.5 16.4 36.5 36.5v84.3c0 11.3 9.2 20.5 20.5 20.5s20.5-9.2 20.5-20.5V402c0-20.1 16.4-36.5 36.5-36.5s36.5 16.4 36.5 36.5v84.3c0 11.3 9.2 20.5 20.5 20.5s20.5-9.2 20.5-20.5V401c0-.3 0-.7-.1-1-1-41.8-35.3-75.5-77.4-75.5zM666 380.5c-11.3 0-20.5 9.2-20.5 20.5v85.3c0 11.3 9.2 20.5 20.5 20.5s20.5-9.2 20.5-20.5V401c0-11.3-9.2-20.5-20.5-20.5zM686.6 341.9c-.1-.7-.3-1.3-.5-2-.2-.6-.4-1.3-.7-1.9s-.6-1.3-.9-1.9-.7-1.2-1-1.8-.8-1.1-1.2-1.6c-.4-.5-.9-1.1-1.4-1.5-.5-.5-1-1-1.5-1.4-.5-.4-1.1-.8-1.7-1.2-.6-.4-1.2-.7-1.8-1.1-.6-.3-1.2-.6-1.9-.9-.6-.3-1.3-.5-1.9-.7-.7-.2-1.3-.4-2-.5-.7-.1-1.4-.2-2-.3-1.4-.1-2.8-.1-4.1 0-.7.1-1.4.2-2 .3-.7.1-1.3.3-2 .5-.6.2-1.3.4-1.9.7-.6.3-1.3.6-1.9.9-.6.3-1.2.7-1.8 1.1-.6.4-1.1.8-1.7 1.2-.5.4-1 .9-1.5 1.4-.5.5-1 1-1.4 1.5-.4.5-.8 1.1-1.2 1.6-.4.6-.7 1.2-1.1 1.8-.3.6-.6 1.2-.9 1.9-.3.6-.5 1.3-.7 1.9-.2.7-.4 1.3-.5 2-.1.7-.2 1.4-.3 2-.1.7-.1 1.4-.1 2.1s0 1.4.1 2.1c.1.7.2 1.4.3 2 .1.7.3 1.3.5 2s.4 1.3.7 1.9c.3.6.6 1.3.9 1.9.3.6.7 1.2 1.1 1.8.4.6.8 1.1 1.2 1.7.4.5.9 1 1.4 1.5.5.5 1 1 1.5 1.4.5.4 1.1.8 1.7 1.2.6.4 1.2.7 1.8 1 .6.3 1.2.6 1.9.9.6.3 1.3.5 1.9.7.7.2 1.3.4 2 .5.7.1 1.4.2 2 .3.7.1 1.4.1 2.1.1.7 0 1.4 0 2.1-.1.7-.1 1.4-.2 2-.3.7-.1 1.3-.3 2-.5s1.3-.4 1.9-.7c.6-.3 1.3-.6 1.9-.9.6-.3 1.2-.7 1.8-1 .6-.4 1.1-.8 1.7-1.2.5-.4 1-.9 1.5-1.4.5-.5 1-1 1.4-1.5.4-.5.8-1.1 1.2-1.7.4-.6.7-1.2 1-1.8.3-.6.6-1.2.9-1.9s.5-1.3.7-1.9c.2-.7.4-1.3.5-2 .1-.7.2-1.3.3-2 .1-.7.1-1.4.1-2.1s0-1.4-.1-2.1c-.2-.6-.3-1.3-.4-2zM1120 380.5c-11.3 0-20.5 9.2-20.5 20.5v85.3c0 11.3 9.2 20.5 20.5 20.5s20.5-9.2 20.5-20.5V401c0-11.3-9.2-20.5-20.5-20.5zM1140.6 341.9c-.1-.7-.3-1.3-.5-2-.2-.6-.4-1.3-.7-1.9s-.6-1.3-.9-1.9-.7-1.2-1-1.8-.8-1.1-1.2-1.6c-.4-.5-.9-1.1-1.4-1.5-.5-.5-1-1-1.5-1.4-.5-.4-1.1-.8-1.7-1.2-.6-.4-1.2-.7-1.8-1.1-.6-.3-1.2-.6-1.9-.9-.6-.3-1.3-.5-1.9-.7-.7-.2-1.3-.4-2-.5-.7-.1-1.3-.2-2-.3-1.4-.1-2.8-.1-4.1 0-.7.1-1.4.2-2 .3-.7.1-1.3.3-2 .5-.6.2-1.3.4-1.9.7-.6.3-1.3.6-1.9.9-.6.3-1.2.7-1.8 1.1-.6.4-1.1.8-1.7 1.2-.5.4-1 .9-1.5 1.4-.5.5-.9 1-1.4 1.5-.4.5-.8 1.1-1.2 1.6s-.7 1.2-1 1.8c-.3.6-.6 1.2-.9 1.9-.3.6-.5 1.3-.7 1.9-.2.7-.4 1.3-.5 2-.1.7-.2 1.4-.3 2-.1.7-.1 1.4-.1 2.1 0 .7 0 1.4.1 2.1.1.7.2 1.4.3 2 .1.7.3 1.3.5 2s.4 1.3.7 1.9c.3.6.6 1.3.9 1.9.3.6.7 1.2 1 1.8.4.6.8 1.1 1.2 1.7.4.5.9 1 1.4 1.5.5.5 1 1 1.5 1.4.5.4 1.1.8 1.7 1.2.6.4 1.2.7 1.8 1 .6.3 1.2.6 1.9.9.6.3 1.3.5 1.9.7.7.2 1.3.4 2 .5.7.1 1.4.2 2 .3.7.1 1.4.1 2.1.1.7 0 1.4 0 2.1-.1.7-.1 1.4-.2 2-.3.7-.1 1.3-.3 2-.5s1.3-.4 1.9-.7c.6-.3 1.3-.6 1.9-.9.6-.3 1.2-.7 1.8-1 .6-.4 1.1-.8 1.7-1.2.5-.4 1.1-.9 1.5-1.4.5-.5 1-1 1.4-1.5.4-.5.8-1.1 1.2-1.7.4-.6.7-1.2 1-1.8.3-.6.6-1.2.9-1.9s.5-1.3.7-1.9c.2-.7.4-1.3.5-2 .1-.7.2-1.3.3-2 .1-.7.1-1.4.1-2.1 0-.7 0-1.4-.1-2.1-.2-.6-.3-1.3-.4-2zM1249 466.5c-20.1 0-36.5-16.4-36.5-36.5v-21.5h22.5c11.3 0 20.5-9.2 20.5-20.5s-9.2-20.5-20.5-20.5h-22.5V346c0-11.3-9.2-20.5-20.5-20.5s-20.5 9.2-20.5 20.5v84c0 42.7 34.8 77.5 77.5 77.5 11.3 0 20.5-9.2 20.5-20.5s-9.2-20.5-20.5-20.5zM1058.2 279.5c-2-11.3-12.8-18.7-24-16.7-11.3 2-18.7 12.8-16.7 24 1.7 9.5 9.6 16.3 18.8 17-2.6 1.8-5.6 3-8.8 3.6-3.4.6-5.6 3.8-5 7.2s3.8 5.6 7.2 5c17.2-3.1 29.3-18.3 28.9-35.2-.1-1.7-.2-3.3-.4-4.9z"/></svg>