<?xml version="1.0" encoding="utf-8"?>
<!-- Generator: Adobe Illustrator 21.0.0, SVG Export Plug-In . SVG Version: 6.00 Build 0)  -->
<svg version="1.1" id="Calque_1" xmlns="http://www.w3.org/2000/svg" xmlns:xlink="http://www.w3.org/1999/xlink" x="0px" y="0px"
	 viewBox="0 0 1366 768" style="enable-background:new 0 0 1366 768;" xml:space="preserve">
<style type="text/css">
	.st0{fill:#00DEA1;}
</style>
<g>
	<path class="st0" d="M279,325.5c-22.5,0-42.8,9.7-57,25.1c-14.2-15.4-34.5-25.1-57-25.1c-41.9,0-76.2,33.5-77.4,75.1
		c0,0.4-0.1,0.8-0.1,1.2v85.4c0,11.3,9.2,20.5,20.5,20.5s20.5-9.2,20.5-20.5V403c0-20.1,16.4-36.5,36.5-36.5s36.5,16.4,36.5,36.5
		v84.2c0,11.3,9.2,20.5,20.5,20.5s20.5-9.2,20.5-20.5V403c0-20.1,16.4-36.5,36.5-36.5s36.5,16.4,36.5,36.5v84.2
		c0,11.3,9.2,20.5,20.5,20.5s20.5-9.2,20.5-20.5v-85.4c0-0.4,0-0.8-0.1-1.2C355.2,359,320.9,325.5,279,325.5z"/>
	<path class="st0" d="M537,326.5c-41.9,0-76,33.4-77.4,74.9c0,0.4-0.1,0.9-0.1,1.3V488c0,11.3,9.2,20.5,20.5,20.5
		s20.5-9.2,20.5-20.5v-84c0-20.1,16.4-36.5,36.5-36.5s36.5,16.4,36.5,36.5v84c0,11.3,9.2,20.5,20.5,20.5s20.5-9.2,20.5-20.5v-85.3
		c0-0.4,0-0.9-0.1-1.3C613,359.9,578.9,326.5,537,326.5z"/>
	<path class="st0" d="M408,380.5c-11.3,0-20.5,9.2-20.5,20.5v85.3c0,11.3,9.2,20.5,20.5,20.5s20.5-9.2,20.5-20.5V401
		C428.5,389.7,419.3,380.5,408,380.5z"/>
	<path class="st0" d="M428.6,341.9c-0.1-0.7-0.3-1.3-0.5-2c-0.2-0.6-0.4-1.3-0.7-1.9c-0.3-0.6-0.6-1.3-0.9-1.9
		c-0.3-0.6-0.7-1.2-1-1.8c-0.4-0.6-0.8-1.1-1.2-1.7c-0.4-0.5-0.9-1-1.4-1.5c-0.5-0.5-1-1-1.5-1.4c-0.5-0.4-1.1-0.8-1.7-1.2
		c-0.6-0.4-1.2-0.7-1.8-1.1c-0.6-0.3-1.2-0.6-1.9-0.9c-0.6-0.3-1.3-0.5-1.9-0.7c-0.7-0.2-1.3-0.4-2-0.5c-0.7-0.1-1.3-0.2-2-0.3
		c-1.4-0.1-2.8-0.1-4.1,0c-0.7,0.1-1.4,0.2-2,0.3c-0.7,0.1-1.3,0.3-2,0.5c-0.6,0.2-1.3,0.4-1.9,0.7c-0.6,0.3-1.3,0.6-1.9,0.9
		c-0.6,0.3-1.2,0.7-1.8,1.1c-0.6,0.4-1.1,0.8-1.6,1.2c-0.5,0.4-1.1,0.9-1.5,1.4c-0.5,0.5-1,1-1.4,1.5c-0.4,0.5-0.8,1.1-1.2,1.7
		c-0.4,0.6-0.7,1.2-1.1,1.8c-0.3,0.6-0.6,1.2-0.9,1.9c-0.3,0.6-0.5,1.3-0.7,1.9c-0.2,0.7-0.4,1.3-0.5,2c-0.1,0.7-0.2,1.4-0.3,2
		c-0.1,0.7-0.1,1.4-0.1,2.1s0,1.4,0.1,2.1c0.1,0.7,0.2,1.4,0.3,2c0.1,0.7,0.3,1.3,0.5,2c0.2,0.7,0.4,1.3,0.7,1.9
		c0.3,0.6,0.6,1.3,0.9,1.9c0.3,0.6,0.7,1.2,1.1,1.8c0.4,0.6,0.8,1.1,1.2,1.7c0.4,0.5,0.9,1,1.4,1.5c0.5,0.5,1,1,1.5,1.4
		c0.5,0.4,1.1,0.8,1.6,1.2c0.6,0.4,1.2,0.7,1.8,1s1.2,0.6,1.9,0.9c0.6,0.3,1.3,0.5,1.9,0.7c0.7,0.2,1.3,0.4,2,0.5
		c0.7,0.1,1.4,0.2,2,0.3c0.7,0.1,1.4,0.1,2.1,0.1s1.4,0,2.1-0.1c0.7-0.1,1.4-0.2,2-0.3c0.7-0.1,1.3-0.3,2-0.5
		c0.7-0.2,1.3-0.4,1.9-0.7c0.6-0.3,1.3-0.6,1.9-0.9c0.6-0.3,1.2-0.7,1.8-1c0.6-0.4,1.1-0.8,1.7-1.2c0.5-0.4,1-0.9,1.5-1.4
		c0.5-0.5,1-1,1.4-1.5c0.4-0.5,0.8-1.1,1.2-1.7c0.4-0.6,0.7-1.2,1-1.8c0.3-0.6,0.6-1.2,0.9-1.9c0.3-0.6,0.5-1.3,0.7-1.9
		c0.2-0.7,0.4-1.3,0.5-2c0.1-0.7,0.2-1.3,0.3-2c0.1-0.7,0.1-1.4,0.1-2.1s0-1.4-0.1-2.1C428.8,343.3,428.7,342.6,428.6,341.9z"/>
	<path class="st0" d="M909,324.5c-22.5,0-42.8,9.7-57,25.1c-14.2-15.4-34.5-25.1-57-25.1c-42.1,0-76.4,33.7-77.4,75.5
		c0,0.3-0.1,0.7-0.1,1v85.3c0,11.3,9.2,20.5,20.5,20.5s20.5-9.2,20.5-20.5V402c0-20.1,16.4-36.5,36.5-36.5s36.5,16.4,36.5,36.5v84.3
		c0,11.3,9.2,20.5,20.5,20.5s20.5-9.2,20.5-20.5V402c0-20.1,16.4-36.5,36.5-36.5s36.5,16.4,36.5,36.5v84.3
		c0,11.3,9.2,20.5,20.5,20.5s20.5-9.2,20.5-20.5V401c0-0.3,0-0.7-0.1-1C985.4,358.2,951.1,324.5,909,324.5z"/>
	<path class="st0" d="M666,380.5c-11.3,0-20.5,9.2-20.5,20.5v85.3c0,11.3,9.2,20.5,20.5,20.5s20.5-9.2,20.5-20.5V401
		C686.5,389.7,677.3,380.5,666,380.5z"/>
	<path class="st0" d="M686.6,341.9c-0.1-0.7-0.3-1.3-0.5-2c-0.2-0.6-0.4-1.3-0.7-1.9s-0.6-1.3-0.9-1.9s-0.7-1.2-1-1.8
		s-0.8-1.1-1.2-1.6c-0.4-0.5-0.9-1.1-1.4-1.5c-0.5-0.5-1-1-1.5-1.4c-0.5-0.4-1.1-0.8-1.7-1.2c-0.6-0.4-1.2-0.7-1.8-1.1
		c-0.6-0.3-1.2-0.6-1.9-0.9c-0.6-0.3-1.3-0.5-1.9-0.7c-0.7-0.2-1.3-0.4-2-0.5c-0.7-0.1-1.4-0.2-2-0.3c-1.4-0.1-2.8-0.1-4.1,0
		c-0.7,0.1-1.4,0.2-2,0.3c-0.7,0.1-1.3,0.3-2,0.5c-0.6,0.2-1.3,0.4-1.9,0.7c-0.6,0.3-1.3,0.6-1.9,0.9c-0.6,0.3-1.2,0.7-1.8,1.1
		c-0.6,0.4-1.1,0.8-1.7,1.2c-0.5,0.4-1,0.9-1.5,1.4c-0.5,0.5-1,1-1.4,1.5c-0.4,0.5-0.8,1.1-1.2,1.6c-0.4,0.6-0.7,1.2-1.1,1.8
		c-0.3,0.6-0.6,1.2-0.9,1.9c-0.3,0.6-0.5,1.3-0.7,1.9c-0.2,0.7-0.4,1.3-0.5,2c-0.1,0.7-0.2,1.4-0.3,2c-0.1,0.7-0.1,1.4-0.1,2.1
		s0,1.4,0.1,2.1c0.1,0.7,0.2,1.4,0.3,2c0.1,0.7,0.3,1.3,0.5,2c0.2,0.7,0.4,1.3,0.7,1.9c0.3,0.6,0.6,1.3,0.9,1.9
		c0.3,0.6,0.7,1.2,1.1,1.8c0.4,0.6,0.8,1.1,1.2,1.7c0.4,0.5,0.9,1,1.4,1.5c0.5,0.5,1,1,1.5,1.4c0.5,0.4,1.1,0.8,1.7,1.2
		c0.6,0.4,1.2,0.7,1.8,1c0.6,0.3,1.2,0.6,1.9,0.9c0.6,0.3,1.3,0.5,1.9,0.7c0.7,0.2,1.3,0.4,2,0.5c0.7,0.1,1.4,0.2,2,0.3
		c0.7,0.1,1.4,0.1,2.1,0.1c0.7,0,1.4,0,2.1-0.1c0.7-0.1,1.4-0.2,2-0.3c0.7-0.1,1.3-0.3,2-0.5c0.7-0.2,1.3-0.4,1.9-0.7
		c0.6-0.3,1.3-0.6,1.9-0.9c0.6-0.3,1.2-0.7,1.8-1c0.6-0.4,1.1-0.8,1.7-1.2c0.5-0.4,1-0.9,1.5-1.4c0.5-0.5,1-1,1.4-1.5
		c0.4-0.5,0.8-1.1,1.2-1.7c0.4-0.6,0.7-1.2,1-1.8c0.3-0.6,0.6-1.2,0.9-1.9s0.5-1.3,0.7-1.9c0.2-0.7,0.4-1.3,0.5-2
		c0.1-0.7,0.2-1.3,0.3-2c0.1-0.7,0.1-1.4,0.1-2.1s0-1.4-0.1-2.1C686.8,343.3,686.7,342.6,686.6,341.9z"/>
	<path class="st0" d="M1120,380.5c-11.3,0-20.5,9.2-20.5,20.5v85.3c0,11.3,9.2,20.5,20.5,20.5s20.5-9.2,20.5-20.5V401
		C1140.5,389.7,1131.3,380.5,1120,380.5z"/>
	<path class="st0" d="M1140.6,341.9c-0.1-0.7-0.3-1.3-0.5-2c-0.2-0.6-0.4-1.3-0.7-1.9s-0.6-1.3-0.9-1.9s-0.7-1.2-1-1.8
		s-0.8-1.1-1.2-1.6c-0.4-0.5-0.9-1.1-1.4-1.5c-0.5-0.5-1-1-1.5-1.4c-0.5-0.4-1.1-0.8-1.7-1.2c-0.6-0.4-1.2-0.7-1.8-1.1
		c-0.6-0.3-1.2-0.6-1.9-0.9c-0.6-0.3-1.3-0.5-1.9-0.7c-0.7-0.2-1.3-0.4-2-0.5c-0.7-0.1-1.3-0.2-2-0.3c-1.4-0.1-2.8-0.1-4.1,0
		c-0.7,0.1-1.4,0.2-2,0.3c-0.7,0.1-1.3,0.3-2,0.5c-0.6,0.2-1.3,0.4-1.9,0.7c-0.6,0.3-1.3,0.6-1.9,0.9c-0.6,0.3-1.2,0.7-1.8,1.1
		c-0.6,0.4-1.1,0.8-1.7,1.2c-0.5,0.4-1,0.9-1.5,1.4c-0.5,0.5-0.9,1-1.4,1.5c-0.4,0.5-0.8,1.1-1.2,1.6s-0.7,1.2-1,1.8
		c-0.3,0.6-0.6,1.2-0.9,1.9c-0.3,0.6-0.5,1.3-0.7,1.9c-0.2,0.7-0.4,1.3-0.5,2c-0.1,0.7-0.2,1.4-0.3,2c-0.1,0.7-0.1,1.4-0.1,2.1
		c0,0.7,0,1.4,0.1,2.1c0.1,0.7,0.2,1.4,0.3,2c0.1,0.7,0.3,1.3,0.5,2c0.2,0.7,0.4,1.3,0.7,1.9c0.3,0.6,0.6,1.3,0.9,1.9
		c0.3,0.6,0.7,1.2,1,1.8c0.4,0.6,0.8,1.1,1.2,1.7c0.4,0.5,0.9,1,1.4,1.5c0.5,0.5,1,1,1.5,1.4c0.5,0.4,1.1,0.8,1.7,1.2
		c0.6,0.4,1.2,0.7,1.8,1c0.6,0.3,1.2,0.6,1.9,0.9c0.6,0.3,1.3,0.5,1.9,0.7c0.7,0.2,1.3,0.4,2,0.5c0.7,0.1,1.4,0.2,2,0.3
		c0.7,0.1,1.4,0.1,2.1,0.1c0.7,0,1.4,0,2.1-0.1c0.7-0.1,1.4-0.2,2-0.3c0.7-0.1,1.3-0.3,2-0.5c0.7-0.2,1.3-0.4,1.9-0.7
		c0.6-0.3,1.3-0.6,1.9-0.9c0.6-0.3,1.2-0.7,1.8-1c0.6-0.4,1.1-0.8,1.7-1.2c0.5-0.4,1.1-0.9,1.5-1.4c0.5-0.5,1-1,1.4-1.5
		c0.4-0.5,0.8-1.1,1.2-1.7c0.4-0.6,0.7-1.2,1-1.8c0.3-0.6,0.6-1.2,0.9-1.9s0.5-1.3,0.7-1.9c0.2-0.7,0.4-1.3,0.5-2
		c0.1-0.7,0.2-1.3,0.3-2c0.1-0.7,0.1-1.4,0.1-2.1c0-0.7,0-1.4-0.1-2.1C1140.8,343.3,1140.7,342.6,1140.6,341.9z"/>
	<path class="st0" d="M1249,466.5c-20.1,0-36.5-16.4-36.5-36.5v-21.5h22.5c11.3,0,20.5-9.2,20.5-20.5c0-11.3-9.2-20.5-20.5-20.5
		h-22.5V346c0-11.3-9.2-20.5-20.5-20.5s-20.5,9.2-20.5,20.5v28.5v2V430c0,42.7,34.8,77.5,77.5,77.5c11.3,0,20.5-9.2,20.5-20.5
		S1260.3,466.5,1249,466.5z"/>
	<path class="st0" d="M1058.2,279.5c-2-11.3-12.8-18.7-24-16.7c-11.3,2-18.7,12.8-16.7,24c1.7,9.5,9.6,16.3,18.8,17
		c-2.6,1.8-5.6,3-8.8,3.6c-3.4,0.6-5.6,3.8-5,7.2s3.8,5.6,7.2,5c17.2-3.1,29.3-18.3,28.9-35.2
		C1058.5,282.7,1058.4,281.1,1058.2,279.5z"/>
</g>
</svg>
